<svg width="140" height="58" viewBox="0 0 140 58" fill="none" xmlns="http://www.w3.org/2000/svg">
<path d="M73.6318 43.1751C72.4152 43.1751 71.3152 42.9668 70.3318 42.5501C69.3652 42.1335 68.5985 41.5335 68.0318 40.7501C67.4652 39.9668 67.1735 39.0418 67.1568 37.9751H70.9068C70.9568 38.6918 71.2068 39.2585 71.6568 39.6751C72.1235 40.0918 72.7568 40.3001 73.5568 40.3001C74.3735 40.3001 75.0152 40.1085 75.4818 39.7251C75.9485 39.3251 76.1818 38.8085 76.1818 38.1751C76.1818 37.6585 76.0235 37.2335 75.7068 36.9001C75.3902 36.5668 74.9902 36.3085 74.5068 36.1251C74.0402 35.9251 73.3902 35.7085 72.5568 35.4751C71.4235 35.1418 70.4985 34.8168 69.7818 34.5001C69.0818 34.1668 68.4735 33.6751 67.9568 33.0251C67.4568 32.3585 67.2068 31.4751 67.2068 30.3751C67.2068 29.3418 67.4652 28.4418 67.9818 27.6751C68.4985 26.9085 69.2235 26.3251 70.1568 25.9251C71.0902 25.5085 72.1568 25.3001 73.3568 25.3001C75.1568 25.3001 76.6152 25.7418 77.7318 26.6251C78.8652 27.4918 79.4902 28.7085 79.6068 30.2751H75.7568C75.7235 29.6751 75.4652 29.1835 74.9818 28.8001C74.5152 28.4001 73.8902 28.2001 73.1068 28.2001C72.4235 28.2001 71.8735 28.3751 71.4568 28.7251C71.0568 29.0751 70.8568 29.5835 70.8568 30.2501C70.8568 30.7168 71.0068 31.1085 71.3068 31.4251C71.6235 31.7251 72.0068 31.9751 72.4568 32.1751C72.9235 32.3585 73.5735 32.5751 74.4068 32.8251C75.5402 33.1585 76.4652 33.4918 77.1818 33.8251C77.8985 34.1585 78.5152 34.6585 79.0318 35.3251C79.5485 35.9918 79.8068 36.8668 79.8068 37.9501C79.8068 38.8835 79.5652 39.7501 79.0818 40.5501C78.5985 41.3501 77.8902 41.9918 76.9568 42.4751C76.0235 42.9418 74.9152 43.1751 73.6318 43.1751ZM81.4412 36.0751C81.4412 34.6418 81.7329 33.3918 82.3162 32.3251C82.8995 31.2418 83.7079 30.4085 84.7412 29.8251C85.7745 29.2251 86.9579 28.9251 88.2912 28.9251C90.0079 28.9251 91.4245 29.3585 92.5412 30.2251C93.6745 31.0751 94.4329 32.2751 94.8162 33.8251H91.0412C90.8412 33.2251 90.4995 32.7585 90.0162 32.4251C89.5495 32.0751 88.9662 31.9001 88.2662 31.9001C87.2662 31.9001 86.4745 32.2668 85.8912 33.0001C85.3079 33.7168 85.0162 34.7418 85.0162 36.0751C85.0162 37.3918 85.3079 38.4168 85.8912 39.1501C86.4745 39.8668 87.2662 40.2251 88.2662 40.2251C89.6829 40.2251 90.6079 39.5918 91.0412 38.3251H94.8162C94.4329 39.8251 93.6745 41.0168 92.5412 41.9001C91.4079 42.7835 89.9912 43.2251 88.2912 43.2251C86.9579 43.2251 85.7745 42.9335 84.7412 42.3501C83.7079 41.7501 82.8995 40.9168 82.3162 39.8501C81.7329 38.7668 81.4412 37.5085 81.4412 36.0751ZM100.38 31.3001C100.83 30.5668 101.414 29.9918 102.13 29.5751C102.864 29.1585 103.697 28.9501 104.63 28.9501V32.6251H103.705C102.605 32.6251 101.772 32.8835 101.205 33.4001C100.655 33.9168 100.38 34.8168 100.38 36.1001V43.0001H96.8803V29.1501H100.38V31.3001ZM108.263 27.5001C107.646 27.5001 107.129 27.3085 106.713 26.9251C106.313 26.5251 106.113 26.0335 106.113 25.4501C106.113 24.8668 106.313 24.3835 106.713 24.0001C107.129 23.6001 107.646 23.4001 108.263 23.4001C108.879 23.4001 109.388 23.6001 109.788 24.0001C110.204 24.3835 110.413 24.8668 110.413 25.4501C110.413 26.0335 110.204 26.5251 109.788 26.9251C109.388 27.3085 108.879 27.5001 108.263 27.5001ZM109.988 29.1501V43.0001H106.488V29.1501H109.988ZM116.446 31.1501C116.896 30.5168 117.512 29.9918 118.296 29.5751C119.096 29.1418 120.004 28.9251 121.021 28.9251C122.204 28.9251 123.271 29.2168 124.221 29.8001C125.187 30.3835 125.946 31.2168 126.496 32.3001C127.062 33.3668 127.346 34.6085 127.346 36.0251C127.346 37.4418 127.062 38.7001 126.496 39.8001C125.946 40.8835 125.187 41.7251 124.221 42.3251C123.271 42.9251 122.204 43.2251 121.021 43.2251C120.004 43.2251 119.104 43.0168 118.321 42.6001C117.554 42.1835 116.929 41.6585 116.446 41.0251V49.6001H112.946V29.1501H116.446V31.1501ZM123.771 36.0251C123.771 35.1918 123.596 34.4751 123.246 33.8751C122.912 33.2585 122.462 32.7918 121.896 32.4751C121.346 32.1585 120.746 32.0001 120.096 32.0001C119.462 32.0001 118.862 32.1668 118.296 32.5001C117.746 32.8168 117.296 33.2835 116.946 33.9001C116.612 34.5168 116.446 35.2418 116.446 36.0751C116.446 36.9085 116.612 37.6335 116.946 38.2501C117.296 38.8668 117.746 39.3418 118.296 39.6751C118.862 39.9918 119.462 40.1501 120.096 40.1501C120.746 40.1501 121.346 39.9835 121.896 39.6501C122.462 39.3168 122.912 38.8418 123.246 38.2251C123.596 37.6085 123.771 36.8751 123.771 36.0251ZM133.464 32.0251V38.7251C133.464 39.1918 133.572 39.5335 133.789 39.7501C134.022 39.9501 134.406 40.0501 134.939 40.0501H136.564V43.0001H134.364C131.414 43.0001 129.939 41.5668 129.939 38.7001V32.0251H128.289V29.1501L129.939 29.1501V25.7251H133.464V29.1501H136.564V32.0251H133.464Z" fill="#137B43"/>
<rect x="48.0005" y="22.1147" width="8" height="33" rx="4" fill="#137B43"/>
<rect x="38.0005" y="30.1147" width="8" height="25" rx="4" fill="#137B43"/>
<rect x="28.0005" y="39.1146" width="8" height="16" rx="4" fill="#137B43"/>
<rect x="17.0005" y="46.1146" width="8" height="10" rx="4" fill="#137B43"/>
<rect width="4.9715" height="27.9278" transform="translate(23.7129 26.0947) rotate(39.561)" fill="#137B43"/>
<rect width="4.9715" height="27.9278" transform="translate(46.7876 10.1147) rotate(39.561)" fill="#137B43"/>
<rect width="4.9715" height="8.07941" transform="translate(24.0005 32.8788) rotate(-49.2117)" fill="#137B43"/>
<path d="M53.3625 4.88767L53.1271 16.966L41.8347 8.50029L53.3625 4.88767Z" fill="#137B43"/>
<path d="M2.45267 56.032L5.0909 48.2854L9.33894 51.6105L2.45267 56.032Z" fill="#137B43"/>
</svg>
